<svg width="300" height="300" viewBox="0 0 300 300" xmlns="http://www.w3.org/2000/svg">
  <defs>
    <linearGradient id="bg" x1="0%" y1="0%" x2="0%" y2="100%">
      <stop offset="0%" stop-color="#f3f5fb"/>
      <stop offset="100%" stop-color="#eef6ff"/>
    </linearGradient>
  </defs>
  <rect width="300" height="300" rx="28" fill="url(#bg)"/>
  <!-- shadow -->
  <ellipse cx="150" cy="250" rx="75" ry="16" fill="#cbd5e1" opacity="0.4"/>
  <!-- body -->
  <polygon points="130,130 170,130 190,220 110,220" fill="#9ca3af"/>
  <polygon points="125,140 175,140 185,190 115,190" fill="#1d4ed8" opacity="0.7"/>
  <!-- legs -->
  <polygon points="125,220 145,220 140,255 120,255" fill="#334155"/>
  <polygon points="175,220 155,220 160,255 180,255" fill="#475569"/>
  <!-- arms -->
  <polygon points="110,150 130,150 120,200 100,200" fill="#475569"/>
  <polygon points="190,150 170,150 180,200 200,200" fill="#475569"/>
  <!-- head -->
  <polygon points="150,70 190,95 180,130 120,130 110,95" fill="#e2e8f0"/>
  <polygon points="135,70 165,70 175,90 125,90" fill="#cbd5e1"/>
  <!-- face accent -->
  <circle cx="150" cy="105" r="6" fill="#0f172a"/>
  <rect x="138" y="98" width="24" height="6" rx="2" fill="#0f172a"/>
</svg>
